<svg width="20" height="20" viewBox="0 0 20 20" fill="none" xmlns="http://www.w3.org/2000/svg">
<path fill-rule="evenodd" clip-rule="evenodd" d="M4.90984 3.50012H15.0899C15.4437 3.50012 15.7359 3.77653 15.7555 4.12981L16.4037 15.7965C16.4249 16.1786 16.1208 16.5001 15.738 16.5001H4.26169C3.87897 16.5001 3.57482 16.1786 3.59605 15.7965L4.2442 4.12981C4.26382 3.77653 4.55602 3.50012 4.90984 3.50012ZM3.24574 4.07434C3.2948 3.19114 4.02528 2.50012 4.90984 2.50012H15.0899C15.9744 2.50012 16.7049 3.19114 16.754 4.07434L17.4021 15.741C17.4552 16.6963 16.6948 17.5001 15.738 17.5001H4.26169C3.30488 17.5001 2.54452 16.6963 2.59759 15.741L3.24574 4.07434ZM7.4998 6.25014C7.4998 5.974 7.27594 5.75014 6.9998 5.75014C6.72365 5.75014 6.4998 5.974 6.4998 6.25014C6.4998 8.18314 8.0668 9.75014 9.9998 9.75014C11.9328 9.75014 13.4998 8.18314 13.4998 6.25014C13.4998 5.974 13.2759 5.75014 12.9998 5.75014C12.7237 5.75014 12.4998 5.974 12.4998 6.25014C12.4998 7.63085 11.3805 8.75014 9.9998 8.75014C8.61908 8.75014 7.4998 7.63085 7.4998 6.25014Z" fill="#222222"/>
</svg>
