<svg xmlns="http://www.w3.org/2000/svg" width="200.003" height="200.001" viewBox="0 0 200.003 200.001">
  <g id="ico_200_star" transform="translate(7960 1.486)" fill="none">
    <path d="M-7960,98.514s98.019-1.98,101-100c0,0,6.93,100,99.008,100-92.078,0-99.008,100-99.008,100C-7861.981,100.494-7960,98.514-7960,98.514Z" stroke="none"/>
    <path d="M -7858.65478515625 8.420761108398438 C -7863.22509765625 52.90922546386719 -7888.75439453125 75.19167327880859 -7910.1630859375 86.16189575195312 C -7923.12060546875 92.80186462402344 -7935.9638671875 96.0777587890625 -7944.45556640625 97.65665435791016 C -7946.318359375 98.00293731689453 -7948.05126953125 98.28485107421875 -7949.63427734375 98.51441955566406 C -7948.05126953125 98.74398803710938 -7946.318359375 99.02590179443359 -7944.45556640625 99.37218475341797 C -7935.9638671875 100.9510803222656 -7923.12060546875 104.2269744873047 -7910.1630859375 110.866943359375 C -7888.75439453125 121.8371658325195 -7863.22509765625 144.1196136474609 -7858.65478515625 188.6080780029297 C -7858.333984375 186.8213195800781 -7857.9404296875 184.8316650390625 -7857.45947265625 182.6725769042969 C -7855.54052734375 174.058837890625 -7851.806640625 161.0594177246094 -7844.91357421875 148.0467071533203 C -7834.078125 127.5900573730469 -7813.45263671875 103.6473999023438 -7775.35986328125 98.51441955566406 C -7813.45263671875 93.38143920898438 -7834.078125 69.43878173828125 -7844.91357421875 48.98213195800781 C -7851.806640625 35.96942138671875 -7855.54052734375 22.97000122070312 -7857.45947265625 14.35626220703125 C -7857.9404296875 12.19717407226562 -7858.333984375 10.20751953125 -7858.65478515625 8.420761108398438 M -7859.0048828125 -1.486297607421875 C -7859.0048828125 -1.486297607421875 -7852.07470703125 98.51441955566406 -7759.9970703125 98.51441955566406 C -7852.07470703125 98.51441955566406 -7859.0048828125 198.51513671875 -7859.0048828125 198.51513671875 C -7861.9814453125 100.4941329956055 -7960.00048828125 98.51441955566406 -7960.00048828125 98.51441955566406 C -7960.00048828125 98.51441955566406 -7861.9814453125 96.53470611572266 -7859.0048828125 -1.486297607421875 Z" stroke="none" fill="#1c1c1b"/>
  </g>
</svg>
